<svg width="33" height="26" viewBox="0 0 33 26" fill="none" xmlns="http://www.w3.org/2000/svg">
<path d="M28.9089 7.45664C28.8172 7.40806 28.7146 7.38395 28.6109 7.38664C28.2379 7.38664 27.7113 7.62781 26.9817 7.98547C26.6896 8.1302 26.3942 8.26823 26.0958 8.39945C26.0143 9.36523 25.7688 10.4371 25.3466 11.6145C25.8519 11.8426 26.3113 12.1215 26.6678 12.4502C25.9416 12.7717 25.1371 12.5912 24.972 12.5787C24.5478 13.592 24.0562 14.5756 23.5003 15.523H25.8371C25.8371 15.523 28.0552 12.1598 28.6563 10.9293C28.968 10.2927 29.1884 9.7207 29.3087 9.23016C29.4268 8.75383 29.4542 8.34695 29.3825 8.05438C29.3202 7.78586 29.1785 7.60813 28.9089 7.45664ZM27.1524 11.4259C26.9984 11.3037 26.8379 11.1899 26.6717 11.0852C26.874 10.4098 27.0206 9.75844 27.1113 9.13773C27.2349 9.07922 28.0432 8.68328 28.3194 8.57336C28.3101 8.67234 27.3377 11.1032 27.1524 11.4259ZM6.22618 12.4502C6.56579 12.1363 6.99837 11.8677 7.47579 11.6441C7.04704 10.4541 6.79767 9.37289 6.71564 8.39891C6.41752 8.26779 6.12249 8.12976 5.83079 7.98492C5.10072 7.62781 4.57407 7.38609 4.20111 7.38609C4.09757 7.38343 3.99509 7.40754 3.90361 7.45609C3.634 7.60758 3.4929 7.78586 3.42892 8.05328C3.35947 8.34586 3.38462 8.75273 3.50329 9.22906C3.6247 9.71961 3.84345 10.2916 4.15681 10.9282C4.75673 12.1587 6.9754 15.522 6.9754 15.522H9.31165C8.75677 14.5764 8.26586 13.5948 7.8422 12.5836C7.70658 12.5929 6.77525 12.7034 6.22618 12.4502ZM5.68587 11.4707C5.49173 11.1333 4.50353 8.67617 4.49314 8.57227C4.76658 8.68219 5.58142 9.08031 5.70064 9.13719C5.79361 9.77047 5.944 10.4366 6.1529 11.1289C5.9872 11.2377 5.83079 11.352 5.68587 11.4707Z" fill="white"/>
<path d="M32.6818 7.26141C32.4007 6.08727 30.6244 2.57742 26.4026 4.50461C26.1045 3.96977 24.4726 1.23703 20.7003 2.42539C20.7014 2.39313 20.7019 1.23703 20.7019 1.23703H18.9437L18.0009 0H14.6978L13.8217 1.23758H12.1111C12.1111 1.23758 12.1116 2.39367 12.1127 2.42539C7.96247 1.23758 6.49138 4.37008 6.40989 4.50516C1.75927 2.52656 0.417238 6.0643 0.132316 7.26195C-0.210028 8.69039 0.110441 10.3802 1.11122 12.4272C1.50825 13.2371 4.04794 17.3387 4.29677 17.7543C4.17775 17.8957 4.0887 18.0599 4.03503 18.2368C3.98136 18.4137 3.96418 18.5997 3.98453 18.7834C4.00488 18.9671 4.06235 19.1448 4.15343 19.3057C4.24452 19.4666 4.36733 19.6072 4.51443 19.7192V22.698C4.3473 22.8258 4.21184 22.9903 4.11852 23.1789C4.0252 23.3674 3.97654 23.5749 3.9763 23.7852C3.97774 24.1482 4.12263 24.4958 4.37936 24.7523C4.63609 25.0088 4.98384 25.1535 5.34677 25.1546L5.34896 25.1557H27.4673C27.8315 25.156 28.181 25.0119 28.4392 24.7551C28.6974 24.4982 28.8433 24.1494 28.8449 23.7852C28.8449 23.339 28.6289 22.942 28.2969 22.6915V19.7258C28.4463 19.6142 28.5712 19.4732 28.6639 19.3114C28.7566 19.1497 28.8152 18.9706 28.836 18.7854C28.8568 18.6001 28.8394 18.4125 28.7849 18.2343C28.7303 18.056 28.6398 17.8908 28.519 17.7488C28.7683 17.3338 31.3047 13.2371 31.7001 12.4277C32.7026 10.3802 33.023 8.69094 32.6818 7.26141ZM27.4635 24.0625H5.3495C5.27533 24.0631 5.20393 24.0343 5.15086 23.9825C5.0978 23.9307 5.06737 23.86 5.06622 23.7858C5.06622 23.6321 5.1931 23.5085 5.3495 23.5085H27.4635C27.6199 23.5085 27.7462 23.6321 27.7462 23.7858C27.7451 23.8599 27.7147 23.9305 27.6618 23.9823C27.6088 24.0341 27.5376 24.0629 27.4635 24.0625ZM27.4635 18.9098H5.35388C5.27971 18.9106 5.20828 18.8818 5.15528 18.83C5.10227 18.7781 5.07201 18.7073 5.07114 18.6331C5.07114 18.48 5.19692 18.3559 5.35388 18.3559H27.4635C27.6199 18.3559 27.7462 18.48 27.7462 18.6331C27.7454 18.7073 27.7151 18.7781 27.6621 18.83C27.6091 18.8818 27.5377 18.9106 27.4635 18.9098ZM27.5269 17.2769H5.28661C4.52099 15.9906 2.6381 13.0572 2.09396 11.947C1.21075 10.138 0.916535 8.68875 1.19653 7.51516C1.40927 6.62156 2.85302 3.63672 6.94528 5.96367C7.91544 3.39773 10.5776 2.40625 13.8682 4.40453C13.481 3.60172 13.2048 2.84922 13.2048 2.33078H19.6076C19.6076 2.84922 19.332 3.60172 18.9454 4.40453C22.173 2.47461 24.6083 3.20906 25.8677 5.96367C30.2312 3.58531 31.4037 6.62156 31.6176 7.51516C31.897 8.68875 31.6028 10.138 30.719 11.947C30.176 13.0566 28.2931 15.9901 27.5269 17.2769Z" fill="white"/>
<path d="M18.6344 3.74063C18.0305 4.30579 17.2336 4.61897 16.4065 4.61618C15.583 4.61873 14.7893 4.30875 14.1856 3.74883C14.2527 4.29166 14.5157 4.79131 14.9251 5.15401C15.3345 5.5167 15.8622 5.71749 16.4092 5.71868C16.9577 5.71764 17.4868 5.51588 17.8968 5.15147C18.3067 4.78707 18.5691 4.28522 18.6344 3.74063ZM23.1139 11.0316C23.1139 11.0316 24.2268 8.83805 23.734 6.83321C23.2768 4.97329 21.8686 5.51141 20.4889 6.21961C19.6232 6.66422 18.641 7.12087 17.5565 7.25321V10.5908C18.1395 10.6903 18.6913 10.8577 19.1441 11.1131C18.6891 11.3701 18.1379 11.5369 17.5565 11.6353V15.5231H19.1392C18.7422 14.8969 18.2254 13.9934 18.2254 13.5281C18.2254 12.7728 18.8346 12.1609 19.586 12.1609C20.3374 12.1609 20.9466 12.7728 20.9466 13.5281C20.9466 13.994 20.4298 14.8974 20.0328 15.5231H20.8082C20.9258 15.3234 22.2673 13.0386 22.7136 12.0187C22.1907 11.7884 21.7139 11.5035 21.3453 11.1601C21.8911 10.8779 23.1139 11.0316 23.1139 11.0316ZM18.6486 8.51813V8.14735C19.5275 7.90782 22.345 6.62485 22.3647 6.62157C22.905 7.58462 22.596 9.10547 22.3417 9.91594C22.3417 9.91649 20.4282 8.89821 18.6486 8.51813ZM9.07887 6.83321C8.64028 8.53071 9.70176 11.0376 9.70176 11.0376C9.70176 11.0376 10.7709 10.9118 11.5497 11.1595C11.1647 11.5172 10.6626 11.812 10.1119 12.0471C10.556 13.0561 11.8871 15.3229 12.0041 15.5225H12.7801C12.3831 14.8963 11.8668 13.9929 11.8668 13.5275C11.8668 12.7723 12.4755 12.1603 13.2275 12.1603C13.9794 12.1603 14.5881 12.7723 14.5881 13.5275C14.5881 13.9934 14.0707 14.8969 13.6743 15.5225H15.2597V11.6304C14.6767 11.5298 14.1254 11.3635 13.6682 11.1125C14.1232 10.8582 14.6756 10.6909 15.2597 10.5913V7.25266C14.1747 7.12141 13.1821 6.67735 12.3235 6.21961C11.0793 5.5568 9.55739 4.97876 9.07887 6.83321ZM14.1654 8.51758C12.388 8.89712 10.4707 9.91266 10.4707 9.91266C10.2164 9.10329 9.77997 7.38665 10.4477 6.62157C10.4679 6.62485 13.2849 7.90837 14.1654 8.14735V8.51758Z" fill="white"/>
</svg>
